<?xml version="1.0" standalone="no"?>
<!DOCTYPE svg PUBLIC "-//W3C//DTD SVG 20010904//EN"
 "http://www.w3.org/TR/2001/REC-SVG-20010904/DTD/svg10.dtd">
<svg version="1.0" xmlns="http://www.w3.org/2000/svg"
 width="512.000000pt" height="512.000000pt" viewBox="0 0 512.000000 512.000000"
 preserveAspectRatio="xMidYMid meet">
<metadata>
Created by potrace 1.15, written by Peter Selinger 2001-2017
</metadata>
<g transform="translate(0.000000,512.000000) scale(0.100000,-0.100000)"
fill="#000000" stroke="none">
<path d="M2055 5096 c-393 -83 -727 -235 -1052 -477 -133 -99 -379 -348 -485
-489 -259 -347 -421 -729 -495 -1167 -26 -156 -26 -630 0 -786 74 -438 236
-820 495 -1167 110 -148 354 -391 497 -498 368 -273 787 -443 1225 -497 163
-20 477 -20 640 0 438 54 857 224 1225 497 143 107 387 350 497 498 259 347
421 729 495 1167 26 156 26 630 0 786 -74 438 -236 820 -495 1167 -110 148
-354 391 -497 498 -295 218 -621 370 -985 458 -115 28 -115 28 -535 30 -407 3
-423 3 -530 -20z m15 -1200 l0 -173 -90 -7 c-144 -11 -183 -34 -199 -120 -5
-28 -12 -147 -16 -265 -7 -266 -22 -360 -75 -467 -38 -77 -77 -123 -155 -182
l-30 -22 30 -22 c56 -41 124 -117 150 -169 56 -110 70 -205 84 -559 9 -237 16
-260 84 -290 23 -10 81 -22 130 -26 l87 -7 0 -175 0 -175 -152 6 c-85 3 -176
12 -205 21 -160 44 -258 139 -300 290 -9 34 -17 145 -23 331 -6 154 -14 303
-20 332 -14 80 -48 149 -92 188 -45 41 -71 53 -150 67 l-58 10 0 178 0 178 67
12 c79 13 107 27 149 72 79 83 93 149 104 498 9 285 18 349 59 433 40 84 140
156 261 191 74 21 96 23 238 25 l122 1 0 -174z m1337 151 c164 -46 271 -161
303 -327 6 -30 15 -181 20 -335 9 -280 15 -325 52 -400 41 -82 93 -117 202
-135 l66 -12 0 -178 0 -178 -66 -12 c-127 -22 -185 -73 -225 -199 -18 -57 -22
-104 -29 -341 -12 -376 -36 -482 -133 -566 -96 -83 -236 -123 -439 -124 l-118
0 0 174 0 173 90 7 c131 10 178 33 199 100 6 17 15 144 21 282 11 288 26 381
74 480 33 67 118 161 171 192 20 11 19 11 -5 29 -62 43 -135 123 -162 177 -54
106 -67 184 -79 470 -6 143 -15 278 -20 298 -15 61 -54 81 -181 92 l-108 10 0
174 0 175 158 -6 c88 -3 180 -12 209 -20z"/>
</g>
</svg>
