<?xml version="1.0" standalone="no"?>
<!DOCTYPE svg PUBLIC "-//W3C//DTD SVG 20010904//EN"
 "http://www.w3.org/TR/2001/REC-SVG-20010904/DTD/svg10.dtd">
<svg version="1.0" xmlns="http://www.w3.org/2000/svg"
 width="512.000000pt" height="512.000000pt" viewBox="0 0 512.000000 512.000000"
 preserveAspectRatio="xMidYMid meet">
<metadata>
Created by potrace 1.11, written by Peter Selinger 2001-2013
</metadata>
<g transform="translate(0.000000,512.000000) scale(0.100000,-0.100000)"
fill="#000000" stroke="none">
<path d="M2188 5115 c-3 -3 -21 -7 -39 -9 -19 -2 -45 -7 -59 -10 -14 -3 -36
-8 -50 -10 -28 -6 -45 -9 -110 -25 -25 -7 -53 -13 -63 -16 -136 -32 -510 -195
-632 -275 -137 -90 -189 -127 -270 -191 -88 -70 -192 -165 -269 -248 -22 -25
-48 -52 -56 -60 -8 -9 -31 -37 -50 -61 -19 -25 -37 -47 -40 -50 -16 -16 -96
-127 -146 -205 -81 -127 -205 -371 -203 -402 1 -3 -3 -9 -8 -12 -16 -11 -114
-316 -128 -400 -3 -19 -7 -37 -9 -40 -2 -3 -7 -24 -10 -46 -11 -68 -16 -99
-21 -125 -13 -72 -19 -184 -20 -350 0 -170 10 -354 20 -371 3 -3 7 -26 9 -50
3 -24 8 -55 11 -69 3 -14 8 -38 11 -55 15 -86 58 -229 111 -375 38 -103 137
-316 158 -340 8 -8 14 -19 14 -23 0 -4 15 -31 33 -60 18 -29 35 -56 37 -62 8
-18 160 -224 193 -262 76 -85 146 -159 187 -197 24 -23 58 -56 76 -73 18 -18
35 -33 39 -33 4 0 17 -10 30 -23 12 -12 35 -31 50 -42 15 -11 42 -32 59 -47
18 -15 38 -28 45 -28 6 0 12 -3 12 -8 0 -4 16 -16 35 -26 19 -11 35 -23 35
-28 0 -5 4 -7 9 -4 5 4 11 3 13 -1 8 -19 342 -197 404 -216 10 -3 57 -19 104
-36 74 -27 196 -64 248 -76 85 -19 166 -36 198 -40 21 -4 50 -8 64 -11 143
-26 547 -26 705 1 17 3 59 10 95 16 69 12 242 53 300 71 83 27 235 83 240 89
3 3 16 10 30 14 79 23 426 219 438 248 2 4 8 7 13 7 9 0 70 44 105 75 6 6 25
21 43 35 18 13 48 38 66 55 17 16 50 46 71 66 84 78 191 197 277 309 31 41 61
80 65 85 24 31 127 204 170 285 84 159 180 411 218 575 23 101 24 107 29 138
2 16 7 42 10 58 28 125 41 570 21 699 -3 19 -8 58 -12 85 -5 40 -33 182 -59
295 -1 8 -15 51 -29 95 -14 44 -26 84 -26 90 -1 5 -9 28 -20 50 -11 22 -19 43
-20 46 0 4 -8 24 -17 45 -9 22 -17 41 -18 44 -1 11 -107 219 -137 271 -18 31
-55 89 -83 130 -27 41 -52 77 -53 82 -2 4 -12 17 -23 30 -10 12 -42 51 -71 87
-105 129 -224 250 -347 350 -24 19 -52 43 -63 52 -10 9 -45 34 -76 55 -31 21
-63 44 -70 51 -8 7 -28 20 -45 29 -18 9 -34 19 -37 22 -15 21 -266 148 -373
190 -40 15 -81 32 -92 36 -57 23 -272 84 -377 107 -95 20 -134 22 -484 25
-209 2 -383 1 -386 -2z"/>
</g>
</svg>
